{
  "asset": {
    "version": "2.0",
    "generator": "THREE.GLTFExporter"
  },
  "scenes": [
    {
      "name": "Scene",
      "nodes": [
        16,
        17
      ]
    }
  ],
  "scene": 0,
  "nodes": [
    {
      "name": "Gebouwen",
      "extras": {
        "name": "Gebouwen"
      },
      "mesh": 0
    },
    {
      "name": "Bomen",
      "extras": {
        "name": "Bomen"
      },
      "mesh": 1
    },
    {
      "name": "Voetpaden",
      "extras": {
        "name": "Voetpaden"
      },
      "mesh": 2
    },
    {
      "name": "Fietspaden",
      "extras": {
        "name": "Fietspaden"
      },
      "mesh": 3
    },
    {
      "name": "Parkeervakken",
      "extras": {
        "name": "Parkeervakken"
      },
      "mesh": 4
    },
    {
      "name": "Wegen",
      "extras": {
        "name": "Wegen"
      },
      "mesh": 5
    },
    {
      "name": "Begroeid",
      "extras": {
        "name": "Begroeid"
      },
      "mesh": 6
    },
    {
      "name": "Erven",
      "extras": {
        "name": "Erven"
      },
      "mesh": 7
    },
    {
      "name": "Onbegroeid",
      "extras": {
        "name": "Onbegroeid"
      },
      "mesh": 8
    },
    {
      "name": "Spoorbanen",
      "extras": {
        "name": "Spoorbanen"
      }
    },
    {
      "name": "Woonerven",
      "extras": {
        "name": "Woonerven"
      }
    },
    {
      "name": "Constructies",
      "extras": {
        "name": "Constructies"
      }
    },
    {
      "name": "Bruggen",
      "extras": {
        "name": "Bruggen"
      }
    },
    {
      "name": "Water",
      "extras": {
        "name": "Water"
      }
    },
    {
      "name": "NAP0Plane",
      "extras": {
        "name": "NAP0Plane"
      },
      "mesh": 9
    },
    {
      "matrix": [
        0.0010000000474974513,
        0,
        0,
        0,
        0,
        0.0010000000474974513,
        0,
        0,
        0,
        0,
        0.0010000000474974513,
        0,
        -0.1356104016304016,
        6.9343791007995605,
        -1.1000442504882812,
        1
      ],
      "name": "Photographer_Sculpture",
      "extras": {
        "name": "Photographer_Sculpture"
      },
      "mesh": 10
    },
    {
      "matrix": [
        0.1,
        0,
        0,
        0,
        0,
        0.1,
        0,
        0,
        0,
        0,
        0.1,
        0,
        0,
        0,
        0,
        1
      ],
      "name": "florijn.glb",
      "children": [
        0,
        1,
        2,
        3,
        4,
        5,
        6,
        7,
        8,
        9,
        10,
        11,
        12,
        13,
        14,
        15
      ]
    },
    {
      "matrix": [
        1,
        0,
        0,
        0,
        0,
        1,
        0,
        0,
        0,
        0,
        1,
        0,
        4.430504937757719,
        10,
        -5.742365365001597,
        1
      ],
      "name": "HemisphereLight"
    }
  ],
  "bufferViews": [
    {
      "buffer": 0,
      "byteOffset": 0,
      "byteLength": 50724,
      "target": 34962,
      "byteStride": 12
    },
    {
      "buffer": 0,
      "byteOffset": 50724,
      "byteLength": 50724,
      "target": 34962,
      "byteStride": 12
    },
    {
      "buffer": 0,
      "byteOffset": 101448,
      "byteLength": 8456,
      "target": 34963
    },
    {
      "buffer": 0,
      "byteOffset": 109904,
      "byteLength": 11880,
      "target": 34962,
      "byteStride": 12
    },
    {
      "buffer": 0,
      "byteOffset": 121784,
      "byteLength": 11880,
      "target": 34962,
      "byteStride": 12
    },
    {
      "buffer": 0,
      "byteOffset": 133664,
      "byteLength": 1980,
      "target": 34963
    },
    {
      "buffer": 0,
      "byteOffset": 135644,
      "byteLength": 10044,
      "target": 34962,
      "byteStride": 12
    },
    {
      "buffer": 0,
      "byteOffset": 145688,
      "byteLength": 10044,
      "target": 34962,
      "byteStride": 12
    },
    {
      "buffer": 0,
      "byteOffset": 155732,
      "byteLength": 1676,
      "target": 34963
    },
    {
      "buffer": 0,
      "byteOffset": 157408,
      "byteLength": 180,
      "target": 34962,
      "byteStride": 12
    },
    {
      "buffer": 0,
      "byteOffset": 157588,
      "byteLength": 180,
      "target": 34962,
      "byteStride": 12
    },
    {
      "buffer": 0,
      "byteOffset": 157768,
      "byteLength": 32,
      "target": 34963
    },
    {
      "buffer": 0,
      "byteOffset": 157800,
      "byteLength": 3168,
      "target": 34962,
      "byteStride": 12
    },
    {
      "buffer": 0,
      "byteOffset": 160968,
      "byteLength": 3168,
      "target": 34962,
      "byteStride": 12
    },
    {
      "buffer": 0,
      "byteOffset": 164136,
      "byteLength": 528,
      "target": 34963
    },
    {
      "buffer": 0,
      "byteOffset": 164664,
      "byteLength": 2160,
      "target": 34962,
      "byteStride": 12
    },
    {
      "buffer": 0,
      "byteOffset": 166824,
      "byteLength": 2160,
      "target": 34962,
      "byteStride": 12
    },
    {
      "buffer": 0,
      "byteOffset": 168984,
      "byteLength": 360,
      "target": 34963
    },
    {
      "buffer": 0,
      "byteOffset": 169344,
      "byteLength": 2628,
      "target": 34962,
      "byteStride": 12
    },
    {
      "buffer": 0,
      "byteOffset": 171972,
      "byteLength": 2628,
      "target": 34962,
      "byteStride": 12
    },
    {
      "buffer": 0,
      "byteOffset": 174600,
      "byteLength": 440,
      "target": 34963
    },
    {
      "buffer": 0,
      "byteOffset": 175040,
      "byteLength": 17136,
      "target": 34962,
      "byteStride": 12
    },
    {
      "buffer": 0,
      "byteOffset": 192176,
      "byteLength": 17136,
      "target": 34962,
      "byteStride": 12
    },
    {
      "buffer": 0,
      "byteOffset": 209312,
      "byteLength": 2856,
      "target": 34963
    },
    {
      "buffer": 0,
      "byteOffset": 212168,
      "byteLength": 12888,
      "target": 34962,
      "byteStride": 12
    },
    {
      "buffer": 0,
      "byteOffset": 225056,
      "byteLength": 12888,
      "target": 34962,
      "byteStride": 12
    },
    {
      "buffer": 0,
      "byteOffset": 237944,
      "byteLength": 2148,
      "target": 34963
    },
    {
      "buffer": 0,
      "byteOffset": 240092,
      "byteLength": 72,
      "target": 34962,
      "byteStride": 12
    },
    {
      "buffer": 0,
      "byteOffset": 240164,
      "byteLength": 72,
      "target": 34962,
      "byteStride": 12
    },
    {
      "buffer": 0,
      "byteOffset": 240236,
      "byteLength": 12,
      "target": 34963
    },
    {
      "buffer": 0,
      "byteOffset": 240248,
      "byteLength": 331764,
      "target": 34962,
      "byteStride": 12
    },
    {
      "buffer": 0,
      "byteOffset": 572012,
      "byteLength": 221176,
      "target": 34962,
      "byteStride": 8
    },
    {
      "buffer": 0,
      "byteOffset": 793188,
      "byteLength": 331764,
      "target": 34962,
      "byteStride": 12
    },
    {
      "buffer": 0,
      "byteOffset": 1124952,
      "byteLength": 300000,
      "target": 34963
    }
  ],
  "buffers": [
    {
      "byteLength": 1424952,
      "uri": "data:application/octet-stream;base64,"
    }
  ],
  "accessors": [
    {
      "bufferView": 0,
      "componentType": 5126,
      "count": 4227,
      "max": [
        100,
        31.85099983215332,
        2.384185791015625e-7
      ],
      "min": [
        -1.1920928955078125e-7,
        -2.819999933242798,
        -95.16082000732422
      ],
      "type": "VEC3"
    },
    {
      "bufferView": 1,
      "componentType": 5126,
      "count": 4227,
      "max": [
        0.9981936812400818,
        1,
        0.9986153841018677
      ],
      "min": [
        -0.9956833124160767,
        -1,
        -0.9965601563453674
      ],
      "type": "VEC3"
    },
    {
      "bufferView": 2,
      "componentType": 5123,
      "count": 4227,
      "max": [
        4226
      ],
      "min": [
        0
      ],
      "type": "SCALAR"
    },
    {
      "bufferView": 3,
      "componentType": 5126,
      "count": 990,
      "max": [
        95.73346710205078,
        11.778162002563477,
        0
      ],
      "min": [
        0,
        -3.592022657394409,
        -100
      ],
      "type": "VEC3"
    },
    {
      "bufferView": 4,
      "componentType": 5126,
      "count": 990,
      "max": [
        0.9999625086784363,
        1,
        0.9995193481445312
      ],
      "min": [
        -0.9999625086784363,
        0,
        -0.9995193481445312
      ],
      "type": "VEC3"
    },
    {
      "bufferView": 5,
      "componentType": 5123,
      "count": 990,
      "max": [
        989
      ],
      "min": [
        0
      ],
      "type": "SCALAR"
    },
    {
      "bufferView": 6,
      "componentType": 5126,
      "count": 837,
      "max": [
        100,
        -1.8299351930618286,
        0
      ],
      "min": [
        0,
        -2.839986562728882,
        -100
      ],
      "type": "VEC3"
    },
    {
      "bufferView": 7,
      "componentType": 5126,
      "count": 837,
      "max": [
        0.8632684946060181,
        1,
        0.9092023372650146
      ],
      "min": [
        -0.8071313500404358,
        0.030914492905139923,
        -0.9909439086914062
      ],
      "type": "VEC3"
    },
    {
      "bufferView": 8,
      "componentType": 5123,
      "count": 837,
      "max": [
        836
      ],
      "min": [
        0
      ],
      "type": "SCALAR"
    },
    {
      "bufferView": 9,
      "componentType": 5126,
      "count": 15,
      "max": [
        11.74991512298584,
        -2.3160438537597656,
        0.0000019073485191256623
      ],
      "min": [
        0,
        -2.459986925125122,
        -21.238643646240234
      ],
      "type": "VEC3"
    },
    {
      "bufferView": 10,
      "componentType": 5126,
      "count": 15,
      "max": [
        -0.013615909032523632,
        0.9999073147773743,
        0.022964613512158394
      ],
      "min": [
        -0.042865049093961716,
        0.9988168478012085,
        -0.00011726105731213465
      ],
      "type": "VEC3"
    },
    {
      "bufferView": 11,
      "componentType": 5123,
      "count": 15,
      "max": [
        14
      ],
      "min": [
        0
      ],
      "type": "SCALAR"
    },
    {
      "bufferView": 12,
      "componentType": 5126,
      "count": 264,
      "max": [
        100,
        -1.6399867534637451,
        0
      ],
      "min": [
        0,
        -2.8900256156921387,
        -100
      ],
      "type": "VEC3"
    },
    {
      "bufferView": 13,
      "componentType": 5126,
      "count": 264,
      "max": [
        0.4318941533565521,
        1,
        0.9944677948951721
      ],
      "min": [
        -0.8130530118942261,
        -0.00002308512557647191,
        -0.9943268299102783
      ],
      "type": "VEC3"
    },
    {
      "bufferView": 14,
      "componentType": 5123,
      "count": 264,
      "max": [
        263
      ],
      "min": [
        0
      ],
      "type": "SCALAR"
    },
    {
      "bufferView": 15,
      "componentType": 5126,
      "count": 180,
      "max": [
        100,
        -2.221860885620117,
        0
      ],
      "min": [
        0,
        -2.8900256156921387,
        -100
      ],
      "type": "VEC3"
    },
    {
      "bufferView": 16,
      "componentType": 5126,
      "count": 180,
      "max": [
        0.5545156002044678,
        1,
        0.9189594984054565
      ],
      "min": [
        -0.38375818729400635,
        0.09079141914844513,
        -0.25933611392974854
      ],
      "type": "VEC3"
    },
    {
      "bufferView": 17,
      "componentType": 5123,
      "count": 180,
      "max": [
        179
      ],
      "min": [
        0
      ],
      "type": "SCALAR"
    },
    {
      "bufferView": 18,
      "componentType": 5126,
      "count": 219,
      "max": [
        88.30810546875,
        -2.0084240436553955,
        2.384185791015625e-7
      ],
      "min": [
        -2.384185791015625e-7,
        -2.8672006130218506,
        -42.414066314697266
      ],
      "type": "VEC3"
    },
    {
      "bufferView": 19,
      "componentType": 5126,
      "count": 219,
      "max": [
        0.8680627942085266,
        0.999996542930603,
        0.5223163366317749
      ],
      "min": [
        -0.7270504832267761,
        0.12594038248062134,
        -0.8159083724021912
      ],
      "type": "VEC3"
    },
    {
      "bufferView": 20,
      "componentType": 5123,
      "count": 219,
      "max": [
        218
      ],
      "min": [
        0
      ],
      "type": "SCALAR"
    },
    {
      "bufferView": 21,
      "componentType": 5126,
      "count": 1428,
      "max": [
        100,
        -0.2605619430541992,
        2.384185791015625e-7
      ],
      "min": [
        0,
        -2.787351369857788,
        -96.62911224365234
      ],
      "type": "VEC3"
    },
    {
      "bufferView": 22,
      "componentType": 5126,
      "count": 1428,
      "max": [
        0.8685302138328552,
        0.9999746084213257,
        0.9858295917510986
      ],
      "min": [
        -0.8585891723632812,
        -0.5890505909919739,
        -0.9796857237815857
      ],
      "type": "VEC3"
    },
    {
      "bufferView": 23,
      "componentType": 5123,
      "count": 1428,
      "max": [
        1427
      ],
      "min": [
        0
      ],
      "type": "SCALAR"
    },
    {
      "bufferView": 24,
      "componentType": 5126,
      "count": 1074,
      "max": [
        100,
        -0.9499868154525757,
        4.76837158203125e-7
      ],
      "min": [
        0,
        -2.7393689155578613,
        -95.11173248291016
      ],
      "type": "VEC3"
    },
    {
      "bufferView": 25,
      "componentType": 5126,
      "count": 1074,
      "max": [
        0.8964409232139587,
        1,
        0.9939707517623901
      ],
      "min": [
        -0.8712429404258728,
        -0.9131699800491333,
        -0.9507445096969604
      ],
      "type": "VEC3"
    },
    {
      "bufferView": 26,
      "componentType": 5123,
      "count": 1074,
      "max": [
        1073
      ],
      "min": [
        0
      ],
      "type": "SCALAR"
    },
    {
      "bufferView": 27,
      "componentType": 5126,
      "count": 6,
      "max": [
        100,
        0.00024478379054926336,
        0
      ],
      "min": [
        0,
        0.00024041265714913607,
        -100
      ],
      "type": "VEC3"
    },
    {
      "bufferView": 28,
      "componentType": 5126,
      "count": 6,
      "max": [
        3.7252902043531655e-13,
        1,
        -4.371118578205824e-8
      ],
      "min": [
        0,
        1,
        -4.371133144331907e-8
      ],
      "type": "VEC3"
    },
    {
      "bufferView": 29,
      "componentType": 5123,
      "count": 6,
      "max": [
        5
      ],
      "min": [
        0
      ],
      "type": "SCALAR"
    },
    {
      "bufferView": 30,
      "componentType": 5126,
      "count": 27647,
      "max": [
        225.91937255859375,
        832.4413452148438,
        492.4870300292969
      ],
      "min": [
        -390.205322265625,
        -829.55419921875,
        1.5386409759521484
      ],
      "type": "VEC3"
    },
    {
      "bufferView": 31,
      "componentType": 5126,
      "count": 27647,
      "max": [
        0.9980400204658508,
        0.9980499744415283
      ],
      "min": [
        0.0019499999471008778,
        0.03755998611450195
      ],
      "type": "VEC2"
    },
    {
      "bufferView": 32,
      "componentType": 5126,
      "count": 27647,
      "max": [
        0.9999809861183167,
        0.9998414516448975,
        0.9999691247940063
      ],
      "min": [
        -0.9999713897705078,
        -0.9999985694885254,
        -0.9999510645866394
      ],
      "type": "VEC3"
    },
    {
      "bufferView": 33,
      "componentType": 5123,
      "count": 150000,
      "max": [
        27646
      ],
      "min": [
        0
      ],
      "type": "SCALAR"
    }
  ],
  "materials": [
    {
      "pbrMetallicRoughness": {
        "baseColorFactor": [
          0.9911020971136257,
          0.623960391667596,
          0.3231432091022285,
          1
        ],
        "metallicFactor": 0,
        "roughnessFactor": 0.5
      },
      "doubleSided": true,
      "name": "Gebouwen",
      "extensions": {
        "KHR_materials_ior": {
          "ior": 1.4499999284744263
        },
        "KHR_materials_specular": {
          "specularFactor": 1,
          "specularColorFactor": [
            0,
            0,
            0
          ]
        }
      }
    },
    {
      "pbrMetallicRoughness": {
        "baseColorFactor": [
          0.03834537789225578,
          0.035604365170001984,
          0.8000000715255737,
          1
        ],
        "metallicFactor": 0,
        "roughnessFactor": 0.9
      },
      "doubleSided": true,
      "name": "Bomen",
      "extensions": {
        "KHR_materials_unlit": {}
      }
    },
    {
      "pbrMetallicRoughness": {
        "baseColorFactor": [
          0.9965044260025024,
          1,
          0.9879953861236572,
          1
        ],
        "metallicFactor": 0,
        "roughnessFactor": 0.5
      },
      "doubleSided": true,
      "name": "Voetpaden",
      "extensions": {
        "KHR_materials_ior": {
          "ior": 1.4499999284744263
        },
        "KHR_materials_specular": {
          "specularFactor": 1,
          "specularColorFactor": [
            0,
            0,
            0
          ]
        }
      }
    },
    {
      "pbrMetallicRoughness": {
        "baseColorFactor": [
          0.6320754289627075,
          0.4142071008682251,
          0.3667230010032654,
          1
        ],
        "metallicFactor": 0,
        "roughnessFactor": 0.5
      },
      "doubleSided": true,
      "name": "Fietspaden",
      "extensions": {
        "KHR_materials_ior": {
          "ior": 1.4499999284744263
        },
        "KHR_materials_specular": {
          "specularFactor": 1,
          "specularColorFactor": [
            0,
            0,
            0
          ]
        }
      }
    },
    {
      "pbrMetallicRoughness": {
        "baseColorFactor": [
          0.4696066081523895,
          0.5754716992378235,
          0.5375776886940002,
          1
        ],
        "metallicFactor": 0,
        "roughnessFactor": 0.5
      },
      "doubleSided": true,
      "name": "Parkeervakken",
      "extensions": {
        "KHR_materials_ior": {
          "ior": 1.4499999284744263
        },
        "KHR_materials_specular": {
          "specularFactor": 1,
          "specularColorFactor": [
            0,
            0,
            0
          ]
        }
      }
    },
    {
      "pbrMetallicRoughness": {
        "baseColorFactor": [
          0.17924530804157257,
          0.17924530804157257,
          0.17924530804157257,
          1
        ],
        "metallicFactor": 0,
        "roughnessFactor": 0.5
      },
      "doubleSided": true,
      "name": "Wegen",
      "extensions": {
        "KHR_materials_ior": {
          "ior": 1.4499999284744263
        },
        "KHR_materials_specular": {
          "specularFactor": 1,
          "specularColorFactor": [
            0,
            0,
            0
          ]
        }
      }
    },
    {
      "pbrMetallicRoughness": {
        "metallicFactor": 0,
        "roughnessFactor": 0.5
      },
      "doubleSided": true,
      "name": "Begroeid",
      "extensions": {
        "KHR_materials_ior": {
          "ior": 1.4499999284744263
        },
        "KHR_materials_specular": {
          "specularFactor": 1,
          "specularColorFactor": [
            0,
            0,
            0
          ]
        }
      }
    },
    {
      "pbrMetallicRoughness": {
        "baseColorFactor": [
          0.18431369960308075,
          0.3490196168422699,
          0.14901959896087646,
          1
        ],
        "metallicFactor": 0,
        "roughnessFactor": 0.5
      },
      "doubleSided": true,
      "name": "Erven",
      "extensions": {
        "KHR_materials_ior": {
          "ior": 1.4499999284744263
        },
        "KHR_materials_specular": {
          "specularFactor": 1,
          "specularColorFactor": [
            0,
            0,
            0
          ]
        }
      }
    },
    {
      "pbrMetallicRoughness": {
        "baseColorFactor": [
          0.5754716992378235,
          0.5516521334648132,
          0.4696066081523895,
          1
        ],
        "metallicFactor": 0,
        "roughnessFactor": 0.5
      },
      "doubleSided": true,
      "name": "Onbegroeid",
      "extensions": {
        "KHR_materials_ior": {
          "ior": 1.4499999284744263
        },
        "KHR_materials_specular": {
          "specularFactor": 1,
          "specularColorFactor": [
            0,
            0,
            0
          ]
        }
      }
    },
    {
      "pbrMetallicRoughness": {
        "baseColorFactor": [
          0,
          0.31684139370918274,
          1,
          1
        ],
        "metallicFactor": 0,
        "roughnessFactor": 0.5
      },
      "doubleSided": true,
      "name": "NAP0Plane",
      "extensions": {
        "KHR_materials_ior": {
          "ior": 1.4499999284744263
        },
        "KHR_materials_specular": {
          "specularFactor": 1,
          "specularColorFactor": [
            0,
            0,
            0
          ]
        }
      }
    },
    {
      "pbrMetallicRoughness": {
        "baseColorFactor": [
          1,
          1,
          1,
          0
        ],
        "metallicFactor": 0,
        "roughnessFactor": 0.5,
        "baseColorTexture": {
          "index": 0
        }
      },
      "doubleSided": true,
      "name": "Pumpkin_mat"
    }
  ],
  "meshes": [
    {
      "primitives": [
        {
          "mode": 4,
          "attributes": {
            "POSITION": 0,
            "NORMAL": 1
          },
          "indices": 2,
          "material": 0
        }
      ]
    },
    {
      "primitives": [
        {
          "mode": 4,
          "attributes": {
            "POSITION": 3,
            "NORMAL": 4
          },
          "indices": 5,
          "material": 1
        }
      ]
    },
    {
      "primitives": [
        {
          "mode": 4,
          "attributes": {
            "POSITION": 6,
            "NORMAL": 7
          },
          "indices": 8,
          "material": 2
        }
      ]
    },
    {
      "primitives": [
        {
          "mode": 4,
          "attributes": {
            "POSITION": 9,
            "NORMAL": 10
          },
          "indices": 11,
          "material": 3
        }
      ]
    },
    {
      "primitives": [
        {
          "mode": 4,
          "attributes": {
            "POSITION": 12,
            "NORMAL": 13
          },
          "indices": 14,
          "material": 4
        }
      ]
    },
    {
      "primitives": [
        {
          "mode": 4,
          "attributes": {
            "POSITION": 15,
            "NORMAL": 16
          },
          "indices": 17,
          "material": 5
        }
      ]
    },
    {
      "primitives": [
        {
          "mode": 4,
          "attributes": {
            "POSITION": 18,
            "NORMAL": 19
          },
          "indices": 20,
          "material": 6
        }
      ]
    },
    {
      "primitives": [
        {
          "mode": 4,
          "attributes": {
            "POSITION": 21,
            "NORMAL": 22
          },
          "indices": 23,
          "material": 7
        }
      ]
    },
    {
      "primitives": [
        {
          "mode": 4,
          "attributes": {
            "POSITION": 24,
            "NORMAL": 25
          },
          "indices": 26,
          "material": 8
        }
      ]
    },
    {
      "primitives": [
        {
          "mode": 4,
          "attributes": {
            "POSITION": 27,
            "NORMAL": 28
          },
          "indices": 29,
          "material": 9
        }
      ]
    },
    {
      "primitives": [
        {
          "mode": 4,
          "attributes": {
            "POSITION": 30,
            "TEXCOORD_0": 31,
            "NORMAL": 32
          },
          "indices": 33,
          "material": 10
        }
      ]
    }
  ],
  "textures": [
    {
      "sampler": 0,
      "source": 0,
      "name": "Untitled"
    }
  ],
  "samplers": [
    {
      "magFilter": 9729,
      "minFilter": 9987,
      "wrapS": 10497,
      "wrapT": 10497
    }
  ],
  "images": [
    {
      "mimeType": "image/png",
      "uri": "data:image/png;base64,"
    }
  ],
  "extensionsUsed": [
    "KHR_materials_ior",
    "KHR_materials_specular",
    "KHR_materials_unlit"
  ]
}